<svg width="278" height="66" viewBox="0 0 278 66" fill="none" xmlns="http://www.w3.org/2000/svg">
<rect x="1" y="1" width="276" height="64" rx="12" fill="#F8F6E9"/>
<rect x="1" y="1" width="276" height="64" rx="12" stroke="#4091AD"/>
<path d="M47.7159 29.0909C47.6307 28.3712 47.285 27.8125 46.679 27.4148C46.0729 27.017 45.3295 26.8182 44.4489 26.8182C43.8049 26.8182 43.2415 26.9223 42.7585 27.1307C42.2803 27.339 41.9063 27.6255 41.6364 27.9901C41.3712 28.3546 41.2386 28.7689 41.2386 29.233C41.2386 29.6212 41.331 29.955 41.5156 30.2344C41.705 30.509 41.9465 30.7386 42.2401 30.9233C42.5336 31.1032 42.8414 31.2524 43.1634 31.3707C43.4853 31.4844 43.7812 31.5767 44.0511 31.6477L45.5284 32.0455C45.9072 32.1449 46.3286 32.2822 46.7926 32.4574C47.2614 32.6326 47.7088 32.8717 48.1349 33.1747C48.5658 33.473 48.9209 33.8565 49.2003 34.3253C49.4796 34.794 49.6193 35.3693 49.6193 36.0511C49.6193 36.8371 49.4134 37.5473 49.0014 38.1818C48.5942 38.8163 47.9976 39.3205 47.2116 39.6946C46.4304 40.0687 45.4811 40.2557 44.3636 40.2557C43.322 40.2557 42.42 40.0876 41.6577 39.7514C40.9001 39.4152 40.3035 38.9465 39.8679 38.3452C39.437 37.7438 39.1932 37.0455 39.1364 36.25H40.9545C41.0019 36.7992 41.1866 37.2538 41.5085 37.6136C41.8352 37.9687 42.2472 38.2339 42.7443 38.4091C43.2462 38.5795 43.786 38.6648 44.3636 38.6648C45.036 38.6648 45.6397 38.5559 46.1747 38.3381C46.7098 38.1155 47.1335 37.8078 47.446 37.4148C47.7585 37.017 47.9148 36.553 47.9148 36.0227C47.9148 35.5398 47.7798 35.1468 47.5099 34.8438C47.2401 34.5407 46.8849 34.2945 46.4446 34.1051C46.0043 33.9157 45.5284 33.75 45.017 33.608L43.2273 33.0966C42.0909 32.7699 41.1913 32.3035 40.5284 31.6974C39.8655 31.0914 39.5341 30.2983 39.5341 29.3182C39.5341 28.5038 39.7543 27.7936 40.1946 27.1875C40.6397 26.5767 41.2363 26.1032 41.9844 25.767C42.7372 25.4261 43.5777 25.2557 44.5057 25.2557C45.4432 25.2557 46.2765 25.4238 47.0057 25.7599C47.7348 26.0914 48.3125 26.5459 48.7386 27.1236C49.1695 27.7012 49.3968 28.357 49.4205 29.0909H47.7159ZM59.163 35.5398V29.0909H60.8391V40H59.163V38.1534H59.0494C58.7937 38.7074 58.396 39.1785 57.8562 39.5668C57.3164 39.9503 56.6346 40.142 55.8107 40.142C55.1289 40.142 54.5228 39.9929 53.9925 39.6946C53.4622 39.3916 53.0456 38.937 52.7425 38.331C52.4395 37.7202 52.288 36.9508 52.288 36.0227V29.0909H53.9641V35.9091C53.9641 36.7045 54.1867 37.339 54.6317 37.8125C55.0816 38.286 55.6545 38.5227 56.3505 38.5227C56.7672 38.5227 57.1909 38.4162 57.6218 38.2031C58.0574 37.9901 58.422 37.6634 58.7156 37.223C59.0138 36.7827 59.163 36.2216 59.163 35.5398ZM64.1364 40V25.4545H65.8125V30.8239H65.9545C66.0777 30.6345 66.2481 30.393 66.4659 30.0994C66.6884 29.8011 67.0057 29.536 67.4176 29.304C67.8343 29.0672 68.3977 28.9489 69.108 28.9489C70.0265 28.9489 70.8362 29.1785 71.5369 29.6378C72.2377 30.0971 72.7846 30.7481 73.1776 31.5909C73.5705 32.4337 73.767 33.428 73.767 34.5739C73.767 35.7292 73.5705 36.7306 73.1776 37.5781C72.7846 38.4209 72.2401 39.0743 71.544 39.5384C70.848 39.9976 70.0455 40.2273 69.1364 40.2273C68.4356 40.2273 67.8745 40.1113 67.4531 39.8793C67.0317 39.6425 66.7074 39.375 66.4801 39.0767C66.2528 38.7737 66.0777 38.5227 65.9545 38.3239H65.7557V40H64.1364ZM65.7841 34.5455C65.7841 35.3693 65.9048 36.0961 66.1463 36.7259C66.3878 37.3509 66.7405 37.8409 67.2045 38.196C67.6686 38.5464 68.2367 38.7216 68.9091 38.7216C69.6098 38.7216 70.1946 38.5369 70.6634 38.1676C71.1368 37.7936 71.492 37.2917 71.7287 36.6619C71.9702 36.0275 72.0909 35.322 72.0909 34.5455C72.0909 33.7784 71.9725 33.0871 71.7358 32.4716C71.5038 31.8513 71.151 31.3613 70.6776 31.0014C70.2088 30.6368 69.6193 30.4545 68.9091 30.4545C68.2273 30.4545 67.6544 30.6274 67.1903 30.973C66.7263 31.3139 66.3759 31.7921 66.1392 32.4077C65.9025 33.0185 65.7841 33.7311 65.7841 34.5455ZM76.331 40V29.0909H77.9503V30.7955H78.0923C78.3196 30.2131 78.6866 29.7609 79.1932 29.4389C79.6998 29.1122 80.3082 28.9489 81.0185 28.9489C81.7382 28.9489 82.3371 29.1122 82.8153 29.4389C83.2983 29.7609 83.6747 30.2131 83.9446 30.7955H84.0582C84.3376 30.232 84.7566 29.7846 85.3153 29.4531C85.8741 29.117 86.544 28.9489 87.3253 28.9489C88.3007 28.9489 89.0985 29.2543 89.7188 29.8651C90.339 30.4711 90.6491 31.4157 90.6491 32.6989V40H88.973V32.6989C88.973 31.8939 88.7528 31.3187 88.3125 30.973C87.8722 30.6274 87.3537 30.4545 86.7571 30.4545C85.9901 30.4545 85.3958 30.6866 84.9744 31.1506C84.553 31.6098 84.3423 32.1922 84.3423 32.8977V40H82.6378V32.5284C82.6378 31.9081 82.4366 31.4086 82.0341 31.0298C81.6316 30.6463 81.1132 30.4545 80.4787 30.4545C80.0431 30.4545 79.6359 30.5705 79.2571 30.8026C78.883 31.0346 78.58 31.3565 78.348 31.7685C78.1207 32.1757 78.0071 32.6468 78.0071 33.1818V40H76.331ZM93.7138 40V29.0909H95.3899V40H93.7138ZM94.5661 27.2727C94.2393 27.2727 93.9576 27.1615 93.7209 26.9389C93.4889 26.7164 93.3729 26.4489 93.3729 26.1364C93.3729 25.8239 93.4889 25.5563 93.7209 25.3338C93.9576 25.1113 94.2393 25 94.5661 25C94.8928 25 95.1721 25.1113 95.4041 25.3338C95.6409 25.5563 95.7592 25.8239 95.7592 26.1364C95.7592 26.4489 95.6409 26.7164 95.4041 26.9389C95.1721 27.1615 94.8928 27.2727 94.5661 27.2727ZM103.204 29.0909V30.5114H97.5508V29.0909H103.204ZM99.1985 26.4773H100.875V36.875C100.875 37.3485 100.943 37.7036 101.081 37.9403C101.223 38.1723 101.403 38.3286 101.62 38.4091C101.843 38.4848 102.077 38.5227 102.324 38.5227C102.508 38.5227 102.66 38.5133 102.778 38.4943C102.896 38.4706 102.991 38.4517 103.062 38.4375L103.403 39.9432C103.289 39.9858 103.131 40.0284 102.927 40.071C102.724 40.1184 102.466 40.142 102.153 40.142C101.68 40.142 101.216 40.0402 100.761 39.8366C100.311 39.633 99.9371 39.3229 99.6388 38.9062C99.3453 38.4896 99.1985 37.964 99.1985 37.3295V26.4773ZM112.43 44.0909C112.146 44.0909 111.893 44.0672 111.67 44.0199C111.448 43.9773 111.294 43.9347 111.208 43.892L111.635 42.4148C112.042 42.5189 112.402 42.5568 112.714 42.5284C113.027 42.5 113.304 42.3603 113.545 42.1094C113.791 41.8632 114.016 41.4631 114.22 40.9091L114.532 40.0568L110.498 29.0909H112.316L115.328 37.7841H115.441L118.453 29.0909H120.271L115.64 41.5909C115.432 42.1544 115.174 42.6207 114.866 42.9901C114.558 43.3641 114.201 43.6411 113.794 43.821C113.391 44.0009 112.937 44.0909 112.43 44.0909ZM126.525 40.2273C125.54 40.2273 124.676 39.9929 123.932 39.5241C123.194 39.0554 122.616 38.3996 122.199 37.5568C121.787 36.714 121.581 35.7292 121.581 34.6023C121.581 33.4659 121.787 32.474 122.199 31.6264C122.616 30.7789 123.194 30.1207 123.932 29.652C124.676 29.1832 125.54 28.9489 126.525 28.9489C127.509 28.9489 128.371 29.1832 129.11 29.652C129.853 30.1207 130.431 30.7789 130.843 31.6264C131.259 32.474 131.468 33.4659 131.468 34.6023C131.468 35.7292 131.259 36.714 130.843 37.5568C130.431 38.3996 129.853 39.0554 129.11 39.5241C128.371 39.9929 127.509 40.2273 126.525 40.2273ZM126.525 38.7216C127.273 38.7216 127.888 38.5298 128.371 38.1463C128.854 37.7628 129.212 37.2585 129.444 36.6335C129.676 36.0085 129.792 35.3314 129.792 34.6023C129.792 33.8731 129.676 33.1937 129.444 32.5639C129.212 31.9342 128.854 31.4252 128.371 31.0369C127.888 30.6487 127.273 30.4545 126.525 30.4545C125.776 30.4545 125.161 30.6487 124.678 31.0369C124.195 31.4252 123.837 31.9342 123.605 32.5639C123.373 33.1937 123.257 33.8731 123.257 34.6023C123.257 35.3314 123.373 36.0085 123.605 36.6335C123.837 37.2585 124.195 37.7628 124.678 38.1463C125.161 38.5298 125.776 38.7216 126.525 38.7216ZM140.901 35.5398V29.0909H142.577V40H140.901V38.1534H140.788C140.532 38.7074 140.134 39.1785 139.594 39.5668C139.055 39.9503 138.373 40.142 137.549 40.142C136.867 40.142 136.261 39.9929 135.731 39.6946C135.201 39.3916 134.784 38.937 134.481 38.331C134.178 37.7202 134.026 36.9508 134.026 36.0227V29.0909H135.702V35.9091C135.702 36.7045 135.925 37.339 136.37 37.8125C136.82 38.286 137.393 38.5227 138.089 38.5227C138.505 38.5227 138.929 38.4162 139.36 38.2031C139.796 37.9901 140.16 37.6634 140.454 37.223C140.752 36.7827 140.901 36.2216 140.901 35.5398ZM145.647 40V29.0909H147.267V30.7386H147.38C147.579 30.1989 147.939 29.7609 148.46 29.4247C148.981 29.0885 149.568 28.9205 150.221 28.9205C150.344 28.9205 150.498 28.9228 150.683 28.9276C150.868 28.9323 151.007 28.9394 151.102 28.9489V30.6534C151.045 30.6392 150.915 30.6179 150.711 30.5895C150.512 30.5563 150.302 30.5398 150.079 30.5398C149.549 30.5398 149.075 30.651 148.659 30.8736C148.247 31.0914 147.92 31.3944 147.679 31.7827C147.442 32.1662 147.324 32.6042 147.324 33.0966V40H145.647ZM158.714 44.0909V29.0909H160.333V30.8239H160.532C160.655 30.6345 160.826 30.393 161.043 30.0994C161.266 29.8011 161.583 29.536 161.995 29.304C162.412 29.0672 162.975 28.9489 163.685 28.9489C164.604 28.9489 165.414 29.1785 166.114 29.6378C166.815 30.0971 167.362 30.7481 167.755 31.5909C168.148 32.4337 168.344 33.428 168.344 34.5739C168.344 35.7292 168.148 36.7306 167.755 37.5781C167.362 38.4209 166.817 39.0743 166.121 39.5384C165.425 39.9976 164.623 40.2273 163.714 40.2273C163.013 40.2273 162.452 40.1113 162.031 39.8793C161.609 39.6425 161.285 39.375 161.058 39.0767C160.83 38.7737 160.655 38.5227 160.532 38.3239H160.39V44.0909H158.714ZM160.362 34.5455C160.362 35.3693 160.482 36.0961 160.724 36.7259C160.965 37.3509 161.318 37.8409 161.782 38.196C162.246 38.5464 162.814 38.7216 163.487 38.7216C164.187 38.7216 164.772 38.5369 165.241 38.1676C165.714 37.7936 166.069 37.2917 166.306 36.6619C166.548 36.0275 166.668 35.322 166.668 34.5455C166.668 33.7784 166.55 33.0871 166.313 32.4716C166.081 31.8513 165.728 31.3613 165.255 31.0014C164.786 30.6368 164.197 30.4545 163.487 30.4545C162.805 30.4545 162.232 30.6274 161.768 30.973C161.304 31.3139 160.953 31.7921 160.717 32.4077C160.48 33.0185 160.362 33.7311 160.362 34.5455ZM170.901 40V29.0909H172.521V30.7386H172.634C172.833 30.1989 173.193 29.7609 173.714 29.4247C174.235 29.0885 174.822 28.9205 175.475 28.9205C175.598 28.9205 175.752 28.9228 175.937 28.9276C176.121 28.9323 176.261 28.9394 176.356 28.9489V30.6534C176.299 30.6392 176.169 30.6179 175.965 30.5895C175.766 30.5563 175.556 30.5398 175.333 30.5398C174.803 30.5398 174.329 30.651 173.913 30.8736C173.501 31.0914 173.174 31.3944 172.933 31.7827C172.696 32.1662 172.577 32.6042 172.577 33.0966V40H170.901ZM182.442 40.2273C181.458 40.2273 180.594 39.9929 179.85 39.5241C179.112 39.0554 178.534 38.3996 178.117 37.5568C177.705 36.714 177.499 35.7292 177.499 34.6023C177.499 33.4659 177.705 32.474 178.117 31.6264C178.534 30.7789 179.112 30.1207 179.85 29.652C180.594 29.1832 181.458 28.9489 182.442 28.9489C183.427 28.9489 184.289 29.1832 185.028 29.652C185.771 30.1207 186.349 30.7789 186.761 31.6264C187.177 32.474 187.386 33.4659 187.386 34.6023C187.386 35.7292 187.177 36.714 186.761 37.5568C186.349 38.3996 185.771 39.0554 185.028 39.5241C184.289 39.9929 183.427 40.2273 182.442 40.2273ZM182.442 38.7216C183.191 38.7216 183.806 38.5298 184.289 38.1463C184.772 37.7628 185.129 37.2585 185.362 36.6335C185.594 36.0085 185.71 35.3314 185.71 34.6023C185.71 33.8731 185.594 33.1937 185.362 32.5639C185.129 31.9342 184.772 31.4252 184.289 31.0369C183.806 30.6487 183.191 30.4545 182.442 30.4545C181.694 30.4545 181.079 30.6487 180.596 31.0369C180.113 31.4252 179.755 31.9342 179.523 32.5639C179.291 33.1937 179.175 33.8731 179.175 34.6023C179.175 35.3314 179.291 36.0085 179.523 36.6335C179.755 37.2585 180.113 37.7628 180.596 38.1463C181.079 38.5298 181.694 38.7216 182.442 38.7216ZM189.944 44.0909V29.0909H191.564V30.8239H191.762C191.886 30.6345 192.056 30.393 192.274 30.0994C192.496 29.8011 192.814 29.536 193.225 29.304C193.642 29.0672 194.206 28.9489 194.916 28.9489C195.834 28.9489 196.644 29.1785 197.345 29.6378C198.046 30.0971 198.592 30.7481 198.985 31.5909C199.378 32.4337 199.575 33.428 199.575 34.5739C199.575 35.7292 199.378 36.7306 198.985 37.5781C198.592 38.4209 198.048 39.0743 197.352 39.5384C196.656 39.9976 195.853 40.2273 194.944 40.2273C194.243 40.2273 193.682 40.1113 193.261 39.8793C192.84 39.6425 192.515 39.375 192.288 39.0767C192.061 38.7737 191.886 38.5227 191.762 38.3239H191.62V44.0909H189.944ZM191.592 34.5455C191.592 35.3693 191.713 36.0961 191.954 36.7259C192.196 37.3509 192.548 37.8409 193.012 38.196C193.476 38.5464 194.045 38.7216 194.717 38.7216C195.418 38.7216 196.002 38.5369 196.471 38.1676C196.945 37.7936 197.3 37.2917 197.537 36.6619C197.778 36.0275 197.899 35.322 197.899 34.5455C197.899 33.7784 197.78 33.0871 197.544 32.4716C197.312 31.8513 196.959 31.3613 196.485 31.0014C196.017 30.6368 195.427 30.4545 194.717 30.4545C194.035 30.4545 193.462 30.6274 192.998 30.973C192.534 31.3139 192.184 31.7921 191.947 32.4077C191.71 33.0185 191.592 33.7311 191.592 34.5455ZM206.564 40.2273C205.579 40.2273 204.715 39.9929 203.971 39.5241C203.233 39.0554 202.655 38.3996 202.238 37.5568C201.826 36.714 201.62 35.7292 201.62 34.6023C201.62 33.4659 201.826 32.474 202.238 31.6264C202.655 30.7789 203.233 30.1207 203.971 29.652C204.715 29.1832 205.579 28.9489 206.564 28.9489C207.548 28.9489 208.41 29.1832 209.149 29.652C209.892 30.1207 210.47 30.7789 210.882 31.6264C211.298 32.474 211.507 33.4659 211.507 34.6023C211.507 35.7292 211.298 36.714 210.882 37.5568C210.47 38.3996 209.892 39.0554 209.149 39.5241C208.41 39.9929 207.548 40.2273 206.564 40.2273ZM206.564 38.7216C207.312 38.7216 207.927 38.5298 208.41 38.1463C208.893 37.7628 209.251 37.2585 209.483 36.6335C209.715 36.0085 209.831 35.3314 209.831 34.6023C209.831 33.8731 209.715 33.1937 209.483 32.5639C209.251 31.9342 208.893 31.4252 208.41 31.0369C207.927 30.6487 207.312 30.4545 206.564 30.4545C205.815 30.4545 205.2 30.6487 204.717 31.0369C204.234 31.4252 203.877 31.9342 203.645 32.5639C203.413 33.1937 203.297 33.8731 203.297 34.6023C203.297 35.3314 203.413 36.0085 203.645 36.6335C203.877 37.2585 204.234 37.7628 204.717 38.1463C205.2 38.5298 205.815 38.7216 206.564 38.7216ZM221.793 31.5341L220.287 31.9602C220.192 31.7093 220.053 31.4654 219.868 31.2287C219.688 30.9872 219.442 30.7884 219.129 30.6321C218.817 30.4759 218.417 30.3977 217.929 30.3977C217.261 30.3977 216.705 30.5516 216.26 30.8594C215.82 31.1624 215.599 31.5483 215.599 32.017C215.599 32.4337 215.751 32.7628 216.054 33.0043C216.357 33.2457 216.83 33.447 217.474 33.608L219.094 34.0057C220.069 34.2424 220.796 34.6046 221.274 35.0923C221.752 35.5753 221.991 36.1979 221.991 36.9602C221.991 37.5852 221.812 38.1439 221.452 38.6364C221.097 39.1288 220.599 39.517 219.96 39.8011C219.321 40.0852 218.578 40.2273 217.73 40.2273C216.617 40.2273 215.696 39.9858 214.967 39.5028C214.238 39.0199 213.777 38.3144 213.582 37.3864L215.173 36.9886C215.325 37.5758 215.611 38.0161 216.033 38.3097C216.459 38.6032 217.015 38.75 217.702 38.75C218.483 38.75 219.103 38.5843 219.562 38.2528C220.027 37.9167 220.259 37.5142 220.259 37.0455C220.259 36.6667 220.126 36.3494 219.861 36.0938C219.596 35.8333 219.188 35.6392 218.639 35.5114L216.821 35.0852C215.822 34.8485 215.088 34.4815 214.619 33.9844C214.155 33.4825 213.923 32.8551 213.923 32.1023C213.923 31.4867 214.096 30.9422 214.442 30.4688C214.792 29.9953 215.268 29.6236 215.869 29.3537C216.475 29.0838 217.162 28.9489 217.929 28.9489C219.009 28.9489 219.856 29.1856 220.472 29.6591C221.092 30.1326 221.532 30.7576 221.793 31.5341ZM227.725 40.2557C227.033 40.2557 226.406 40.1255 225.843 39.8651C225.279 39.5999 224.832 39.2188 224.5 38.7216C224.169 38.2197 224.003 37.6136 224.003 36.9034C224.003 36.2784 224.126 35.7718 224.373 35.3835C224.619 34.9905 224.948 34.6828 225.36 34.4602C225.772 34.2377 226.226 34.072 226.723 33.9631C227.225 33.8494 227.73 33.7595 228.236 33.6932C228.899 33.608 229.436 33.544 229.848 33.5014C230.265 33.4541 230.568 33.3759 230.757 33.267C230.952 33.1581 231.049 32.9687 231.049 32.6989V32.642C231.049 31.9413 230.857 31.3968 230.473 31.0085C230.095 30.6203 229.519 30.4261 228.748 30.4261C227.947 30.4261 227.32 30.6013 226.865 30.9517C226.411 31.3021 226.091 31.6761 225.907 32.0739L224.316 31.5057C224.6 30.8428 224.979 30.3267 225.452 29.9574C225.93 29.5833 226.451 29.3229 227.015 29.1761C227.583 29.0246 228.141 28.9489 228.691 28.9489C229.041 28.9489 229.444 28.9915 229.898 29.0767C230.357 29.1572 230.8 29.3253 231.226 29.581C231.657 29.8366 232.015 30.2225 232.299 30.7386C232.583 31.2547 232.725 31.946 232.725 32.8125V40H231.049V38.5227H230.963C230.85 38.7595 230.66 39.0128 230.395 39.2827C230.13 39.5526 229.777 39.7822 229.337 39.9716C228.897 40.161 228.359 40.2557 227.725 40.2557ZM227.98 38.75C228.643 38.75 229.202 38.6198 229.657 38.3594C230.116 38.099 230.462 37.7628 230.694 37.3509C230.93 36.9389 231.049 36.5057 231.049 36.0511V34.517C230.978 34.6023 230.821 34.6804 230.58 34.7514C230.343 34.8177 230.069 34.8769 229.756 34.929C229.448 34.9763 229.148 35.0189 228.854 35.0568C228.565 35.09 228.331 35.1184 228.151 35.142C227.715 35.1989 227.308 35.2912 226.929 35.419C226.555 35.5421 226.252 35.7292 226.02 35.9801C225.793 36.2263 225.679 36.5625 225.679 36.9886C225.679 37.571 225.895 38.0114 226.326 38.3097C226.761 38.6032 227.313 38.75 227.98 38.75ZM237.46 25.4545V40H235.784V25.4545H237.46Z" fill="black"/>
<path d="M47.7159 29.0909C47.6307 28.3712 47.285 27.8125 46.679 27.4148C46.0729 27.017 45.3295 26.8182 44.4489 26.8182C43.8049 26.8182 43.2415 26.9223 42.7585 27.1307C42.2803 27.339 41.9063 27.6255 41.6364 27.9901C41.3712 28.3546 41.2386 28.7689 41.2386 29.233C41.2386 29.6212 41.331 29.955 41.5156 30.2344C41.705 30.509 41.9465 30.7386 42.2401 30.9233C42.5336 31.1032 42.8414 31.2524 43.1634 31.3707C43.4853 31.4844 43.7812 31.5767 44.0511 31.6477L45.5284 32.0455C45.9072 32.1449 46.3286 32.2822 46.7926 32.4574C47.2614 32.6326 47.7088 32.8717 48.1349 33.1747C48.5658 33.473 48.9209 33.8565 49.2003 34.3253C49.4796 34.794 49.6193 35.3693 49.6193 36.0511C49.6193 36.8371 49.4134 37.5473 49.0014 38.1818C48.5942 38.8163 47.9976 39.3205 47.2116 39.6946C46.4304 40.0687 45.4811 40.2557 44.3636 40.2557C43.322 40.2557 42.42 40.0876 41.6577 39.7514C40.9001 39.4152 40.3035 38.9465 39.8679 38.3452C39.437 37.7438 39.1932 37.0455 39.1364 36.25H40.9545C41.0019 36.7992 41.1866 37.2538 41.5085 37.6136C41.8352 37.9687 42.2472 38.2339 42.7443 38.4091C43.2462 38.5795 43.786 38.6648 44.3636 38.6648C45.036 38.6648 45.6397 38.5559 46.1747 38.3381C46.7098 38.1155 47.1335 37.8078 47.446 37.4148C47.7585 37.017 47.9148 36.553 47.9148 36.0227C47.9148 35.5398 47.7798 35.1468 47.5099 34.8438C47.2401 34.5407 46.8849 34.2945 46.4446 34.1051C46.0043 33.9157 45.5284 33.75 45.017 33.608L43.2273 33.0966C42.0909 32.7699 41.1913 32.3035 40.5284 31.6974C39.8655 31.0914 39.5341 30.2983 39.5341 29.3182C39.5341 28.5038 39.7543 27.7936 40.1946 27.1875C40.6397 26.5767 41.2363 26.1032 41.9844 25.767C42.7372 25.4261 43.5777 25.2557 44.5057 25.2557C45.4432 25.2557 46.2765 25.4238 47.0057 25.7599C47.7348 26.0914 48.3125 26.5459 48.7386 27.1236C49.1695 27.7012 49.3968 28.357 49.4205 29.0909H47.7159ZM59.163 35.5398V29.0909H60.8391V40H59.163V38.1534H59.0494C58.7937 38.7074 58.396 39.1785 57.8562 39.5668C57.3164 39.9503 56.6346 40.142 55.8107 40.142C55.1289 40.142 54.5228 39.9929 53.9925 39.6946C53.4622 39.3916 53.0456 38.937 52.7425 38.331C52.4395 37.7202 52.288 36.9508 52.288 36.0227V29.0909H53.9641V35.9091C53.9641 36.7045 54.1867 37.339 54.6317 37.8125C55.0816 38.286 55.6545 38.5227 56.3505 38.5227C56.7672 38.5227 57.1909 38.4162 57.6218 38.2031C58.0574 37.9901 58.422 37.6634 58.7156 37.223C59.0138 36.7827 59.163 36.2216 59.163 35.5398ZM64.1364 40V25.4545H65.8125V30.8239H65.9545C66.0777 30.6345 66.2481 30.393 66.4659 30.0994C66.6884 29.8011 67.0057 29.536 67.4176 29.304C67.8343 29.0672 68.3977 28.9489 69.108 28.9489C70.0265 28.9489 70.8362 29.1785 71.5369 29.6378C72.2377 30.0971 72.7846 30.7481 73.1776 31.5909C73.5705 32.4337 73.767 33.428 73.767 34.5739C73.767 35.7292 73.5705 36.7306 73.1776 37.5781C72.7846 38.4209 72.2401 39.0743 71.544 39.5384C70.848 39.9976 70.0455 40.2273 69.1364 40.2273C68.4356 40.2273 67.8745 40.1113 67.4531 39.8793C67.0317 39.6425 66.7074 39.375 66.4801 39.0767C66.2528 38.7737 66.0777 38.5227 65.9545 38.3239H65.7557V40H64.1364ZM65.7841 34.5455C65.7841 35.3693 65.9048 36.0961 66.1463 36.7259C66.3878 37.3509 66.7405 37.8409 67.2045 38.196C67.6686 38.5464 68.2367 38.7216 68.9091 38.7216C69.6098 38.7216 70.1946 38.5369 70.6634 38.1676C71.1368 37.7936 71.492 37.2917 71.7287 36.6619C71.9702 36.0275 72.0909 35.322 72.0909 34.5455C72.0909 33.7784 71.9725 33.0871 71.7358 32.4716C71.5038 31.8513 71.151 31.3613 70.6776 31.0014C70.2088 30.6368 69.6193 30.4545 68.9091 30.4545C68.2273 30.4545 67.6544 30.6274 67.1903 30.973C66.7263 31.3139 66.3759 31.7921 66.1392 32.4077C65.9025 33.0185 65.7841 33.7311 65.7841 34.5455ZM76.331 40V29.0909H77.9503V30.7955H78.0923C78.3196 30.2131 78.6866 29.7609 79.1932 29.4389C79.6998 29.1122 80.3082 28.9489 81.0185 28.9489C81.7382 28.9489 82.3371 29.1122 82.8153 29.4389C83.2983 29.7609 83.6747 30.2131 83.9446 30.7955H84.0582C84.3376 30.232 84.7566 29.7846 85.3153 29.4531C85.8741 29.117 86.544 28.9489 87.3253 28.9489C88.3007 28.9489 89.0985 29.2543 89.7188 29.8651C90.339 30.4711 90.6491 31.4157 90.6491 32.6989V40H88.973V32.6989C88.973 31.8939 88.7528 31.3187 88.3125 30.973C87.8722 30.6274 87.3537 30.4545 86.7571 30.4545C85.9901 30.4545 85.3958 30.6866 84.9744 31.1506C84.553 31.6098 84.3423 32.1922 84.3423 32.8977V40H82.6378V32.5284C82.6378 31.9081 82.4366 31.4086 82.0341 31.0298C81.6316 30.6463 81.1132 30.4545 80.4787 30.4545C80.0431 30.4545 79.6359 30.5705 79.2571 30.8026C78.883 31.0346 78.58 31.3565 78.348 31.7685C78.1207 32.1757 78.0071 32.6468 78.0071 33.1818V40H76.331ZM93.7138 40V29.0909H95.3899V40H93.7138ZM94.5661 27.2727C94.2393 27.2727 93.9576 27.1615 93.7209 26.9389C93.4889 26.7164 93.3729 26.4489 93.3729 26.1364C93.3729 25.8239 93.4889 25.5563 93.7209 25.3338C93.9576 25.1113 94.2393 25 94.5661 25C94.8928 25 95.1721 25.1113 95.4041 25.3338C95.6409 25.5563 95.7592 25.8239 95.7592 26.1364C95.7592 26.4489 95.6409 26.7164 95.4041 26.9389C95.1721 27.1615 94.8928 27.2727 94.5661 27.2727ZM103.204 29.0909V30.5114H97.5508V29.0909H103.204ZM99.1985 26.4773H100.875V36.875C100.875 37.3485 100.943 37.7036 101.081 37.9403C101.223 38.1723 101.403 38.3286 101.62 38.4091C101.843 38.4848 102.077 38.5227 102.324 38.5227C102.508 38.5227 102.66 38.5133 102.778 38.4943C102.896 38.4706 102.991 38.4517 103.062 38.4375L103.403 39.9432C103.289 39.9858 103.131 40.0284 102.927 40.071C102.724 40.1184 102.466 40.142 102.153 40.142C101.68 40.142 101.216 40.0402 100.761 39.8366C100.311 39.633 99.9371 39.3229 99.6388 38.9062C99.3453 38.4896 99.1985 37.964 99.1985 37.3295V26.4773ZM112.43 44.0909C112.146 44.0909 111.893 44.0672 111.67 44.0199C111.448 43.9773 111.294 43.9347 111.208 43.892L111.635 42.4148C112.042 42.5189 112.402 42.5568 112.714 42.5284C113.027 42.5 113.304 42.3603 113.545 42.1094C113.791 41.8632 114.016 41.4631 114.22 40.9091L114.532 40.0568L110.498 29.0909H112.316L115.328 37.7841H115.441L118.453 29.0909H120.271L115.64 41.5909C115.432 42.1544 115.174 42.6207 114.866 42.9901C114.558 43.3641 114.201 43.6411 113.794 43.821C113.391 44.0009 112.937 44.0909 112.43 44.0909ZM126.525 40.2273C125.54 40.2273 124.676 39.9929 123.932 39.5241C123.194 39.0554 122.616 38.3996 122.199 37.5568C121.787 36.714 121.581 35.7292 121.581 34.6023C121.581 33.4659 121.787 32.474 122.199 31.6264C122.616 30.7789 123.194 30.1207 123.932 29.652C124.676 29.1832 125.54 28.9489 126.525 28.9489C127.509 28.9489 128.371 29.1832 129.11 29.652C129.853 30.1207 130.431 30.7789 130.843 31.6264C131.259 32.474 131.468 33.4659 131.468 34.6023C131.468 35.7292 131.259 36.714 130.843 37.5568C130.431 38.3996 129.853 39.0554 129.11 39.5241C128.371 39.9929 127.509 40.2273 126.525 40.2273ZM126.525 38.7216C127.273 38.7216 127.888 38.5298 128.371 38.1463C128.854 37.7628 129.212 37.2585 129.444 36.6335C129.676 36.0085 129.792 35.3314 129.792 34.6023C129.792 33.8731 129.676 33.1937 129.444 32.5639C129.212 31.9342 128.854 31.4252 128.371 31.0369C127.888 30.6487 127.273 30.4545 126.525 30.4545C125.776 30.4545 125.161 30.6487 124.678 31.0369C124.195 31.4252 123.837 31.9342 123.605 32.5639C123.373 33.1937 123.257 33.8731 123.257 34.6023C123.257 35.3314 123.373 36.0085 123.605 36.6335C123.837 37.2585 124.195 37.7628 124.678 38.1463C125.161 38.5298 125.776 38.7216 126.525 38.7216ZM140.901 35.5398V29.0909H142.577V40H140.901V38.1534H140.788C140.532 38.7074 140.134 39.1785 139.594 39.5668C139.055 39.9503 138.373 40.142 137.549 40.142C136.867 40.142 136.261 39.9929 135.731 39.6946C135.201 39.3916 134.784 38.937 134.481 38.331C134.178 37.7202 134.026 36.9508 134.026 36.0227V29.0909H135.702V35.9091C135.702 36.7045 135.925 37.339 136.37 37.8125C136.82 38.286 137.393 38.5227 138.089 38.5227C138.505 38.5227 138.929 38.4162 139.36 38.2031C139.796 37.9901 140.16 37.6634 140.454 37.223C140.752 36.7827 140.901 36.2216 140.901 35.5398ZM145.647 40V29.0909H147.267V30.7386H147.38C147.579 30.1989 147.939 29.7609 148.46 29.4247C148.981 29.0885 149.568 28.9205 150.221 28.9205C150.344 28.9205 150.498 28.9228 150.683 28.9276C150.868 28.9323 151.007 28.9394 151.102 28.9489V30.6534C151.045 30.6392 150.915 30.6179 150.711 30.5895C150.512 30.5563 150.302 30.5398 150.079 30.5398C149.549 30.5398 149.075 30.651 148.659 30.8736C148.247 31.0914 147.92 31.3944 147.679 31.7827C147.442 32.1662 147.324 32.6042 147.324 33.0966V40H145.647ZM158.714 44.0909V29.0909H160.333V30.8239H160.532C160.655 30.6345 160.826 30.393 161.043 30.0994C161.266 29.8011 161.583 29.536 161.995 29.304C162.412 29.0672 162.975 28.9489 163.685 28.9489C164.604 28.9489 165.414 29.1785 166.114 29.6378C166.815 30.0971 167.362 30.7481 167.755 31.5909C168.148 32.4337 168.344 33.428 168.344 34.5739C168.344 35.7292 168.148 36.7306 167.755 37.5781C167.362 38.4209 166.817 39.0743 166.121 39.5384C165.425 39.9976 164.623 40.2273 163.714 40.2273C163.013 40.2273 162.452 40.1113 162.031 39.8793C161.609 39.6425 161.285 39.375 161.058 39.0767C160.83 38.7737 160.655 38.5227 160.532 38.3239H160.39V44.0909H158.714ZM160.362 34.5455C160.362 35.3693 160.482 36.0961 160.724 36.7259C160.965 37.3509 161.318 37.8409 161.782 38.196C162.246 38.5464 162.814 38.7216 163.487 38.7216C164.187 38.7216 164.772 38.5369 165.241 38.1676C165.714 37.7936 166.069 37.2917 166.306 36.6619C166.548 36.0275 166.668 35.322 166.668 34.5455C166.668 33.7784 166.55 33.0871 166.313 32.4716C166.081 31.8513 165.728 31.3613 165.255 31.0014C164.786 30.6368 164.197 30.4545 163.487 30.4545C162.805 30.4545 162.232 30.6274 161.768 30.973C161.304 31.3139 160.953 31.7921 160.717 32.4077C160.48 33.0185 160.362 33.7311 160.362 34.5455ZM170.901 40V29.0909H172.521V30.7386H172.634C172.833 30.1989 173.193 29.7609 173.714 29.4247C174.235 29.0885 174.822 28.9205 175.475 28.9205C175.598 28.9205 175.752 28.9228 175.937 28.9276C176.121 28.9323 176.261 28.9394 176.356 28.9489V30.6534C176.299 30.6392 176.169 30.6179 175.965 30.5895C175.766 30.5563 175.556 30.5398 175.333 30.5398C174.803 30.5398 174.329 30.651 173.913 30.8736C173.501 31.0914 173.174 31.3944 172.933 31.7827C172.696 32.1662 172.577 32.6042 172.577 33.0966V40H170.901ZM182.442 40.2273C181.458 40.2273 180.594 39.9929 179.85 39.5241C179.112 39.0554 178.534 38.3996 178.117 37.5568C177.705 36.714 177.499 35.7292 177.499 34.6023C177.499 33.4659 177.705 32.474 178.117 31.6264C178.534 30.7789 179.112 30.1207 179.85 29.652C180.594 29.1832 181.458 28.9489 182.442 28.9489C183.427 28.9489 184.289 29.1832 185.028 29.652C185.771 30.1207 186.349 30.7789 186.761 31.6264C187.177 32.474 187.386 33.4659 187.386 34.6023C187.386 35.7292 187.177 36.714 186.761 37.5568C186.349 38.3996 185.771 39.0554 185.028 39.5241C184.289 39.9929 183.427 40.2273 182.442 40.2273ZM182.442 38.7216C183.191 38.7216 183.806 38.5298 184.289 38.1463C184.772 37.7628 185.129 37.2585 185.362 36.6335C185.594 36.0085 185.71 35.3314 185.71 34.6023C185.71 33.8731 185.594 33.1937 185.362 32.5639C185.129 31.9342 184.772 31.4252 184.289 31.0369C183.806 30.6487 183.191 30.4545 182.442 30.4545C181.694 30.4545 181.079 30.6487 180.596 31.0369C180.113 31.4252 179.755 31.9342 179.523 32.5639C179.291 33.1937 179.175 33.8731 179.175 34.6023C179.175 35.3314 179.291 36.0085 179.523 36.6335C179.755 37.2585 180.113 37.7628 180.596 38.1463C181.079 38.5298 181.694 38.7216 182.442 38.7216ZM189.944 44.0909V29.0909H191.564V30.8239H191.762C191.886 30.6345 192.056 30.393 192.274 30.0994C192.496 29.8011 192.814 29.536 193.225 29.304C193.642 29.0672 194.206 28.9489 194.916 28.9489C195.834 28.9489 196.644 29.1785 197.345 29.6378C198.046 30.0971 198.592 30.7481 198.985 31.5909C199.378 32.4337 199.575 33.428 199.575 34.5739C199.575 35.7292 199.378 36.7306 198.985 37.5781C198.592 38.4209 198.048 39.0743 197.352 39.5384C196.656 39.9976 195.853 40.2273 194.944 40.2273C194.243 40.2273 193.682 40.1113 193.261 39.8793C192.84 39.6425 192.515 39.375 192.288 39.0767C192.061 38.7737 191.886 38.5227 191.762 38.3239H191.62V44.0909H189.944ZM191.592 34.5455C191.592 35.3693 191.713 36.0961 191.954 36.7259C192.196 37.3509 192.548 37.8409 193.012 38.196C193.476 38.5464 194.045 38.7216 194.717 38.7216C195.418 38.7216 196.002 38.5369 196.471 38.1676C196.945 37.7936 197.3 37.2917 197.537 36.6619C197.778 36.0275 197.899 35.322 197.899 34.5455C197.899 33.7784 197.78 33.0871 197.544 32.4716C197.312 31.8513 196.959 31.3613 196.485 31.0014C196.017 30.6368 195.427 30.4545 194.717 30.4545C194.035 30.4545 193.462 30.6274 192.998 30.973C192.534 31.3139 192.184 31.7921 191.947 32.4077C191.71 33.0185 191.592 33.7311 191.592 34.5455ZM206.564 40.2273C205.579 40.2273 204.715 39.9929 203.971 39.5241C203.233 39.0554 202.655 38.3996 202.238 37.5568C201.826 36.714 201.62 35.7292 201.62 34.6023C201.62 33.4659 201.826 32.474 202.238 31.6264C202.655 30.7789 203.233 30.1207 203.971 29.652C204.715 29.1832 205.579 28.9489 206.564 28.9489C207.548 28.9489 208.41 29.1832 209.149 29.652C209.892 30.1207 210.47 30.7789 210.882 31.6264C211.298 32.474 211.507 33.4659 211.507 34.6023C211.507 35.7292 211.298 36.714 210.882 37.5568C210.47 38.3996 209.892 39.0554 209.149 39.5241C208.41 39.9929 207.548 40.2273 206.564 40.2273ZM206.564 38.7216C207.312 38.7216 207.927 38.5298 208.41 38.1463C208.893 37.7628 209.251 37.2585 209.483 36.6335C209.715 36.0085 209.831 35.3314 209.831 34.6023C209.831 33.8731 209.715 33.1937 209.483 32.5639C209.251 31.9342 208.893 31.4252 208.41 31.0369C207.927 30.6487 207.312 30.4545 206.564 30.4545C205.815 30.4545 205.2 30.6487 204.717 31.0369C204.234 31.4252 203.877 31.9342 203.645 32.5639C203.413 33.1937 203.297 33.8731 203.297 34.6023C203.297 35.3314 203.413 36.0085 203.645 36.6335C203.877 37.2585 204.234 37.7628 204.717 38.1463C205.2 38.5298 205.815 38.7216 206.564 38.7216ZM221.793 31.5341L220.287 31.9602C220.192 31.7093 220.053 31.4654 219.868 31.2287C219.688 30.9872 219.442 30.7884 219.129 30.6321C218.817 30.4759 218.417 30.3977 217.929 30.3977C217.261 30.3977 216.705 30.5516 216.26 30.8594C215.82 31.1624 215.599 31.5483 215.599 32.017C215.599 32.4337 215.751 32.7628 216.054 33.0043C216.357 33.2457 216.83 33.447 217.474 33.608L219.094 34.0057C220.069 34.2424 220.796 34.6046 221.274 35.0923C221.752 35.5753 221.991 36.1979 221.991 36.9602C221.991 37.5852 221.812 38.1439 221.452 38.6364C221.097 39.1288 220.599 39.517 219.96 39.8011C219.321 40.0852 218.578 40.2273 217.73 40.2273C216.617 40.2273 215.696 39.9858 214.967 39.5028C214.238 39.0199 213.777 38.3144 213.582 37.3864L215.173 36.9886C215.325 37.5758 215.611 38.0161 216.033 38.3097C216.459 38.6032 217.015 38.75 217.702 38.75C218.483 38.75 219.103 38.5843 219.562 38.2528C220.027 37.9167 220.259 37.5142 220.259 37.0455C220.259 36.6667 220.126 36.3494 219.861 36.0938C219.596 35.8333 219.188 35.6392 218.639 35.5114L216.821 35.0852C215.822 34.8485 215.088 34.4815 214.619 33.9844C214.155 33.4825 213.923 32.8551 213.923 32.1023C213.923 31.4867 214.096 30.9422 214.442 30.4688C214.792 29.9953 215.268 29.6236 215.869 29.3537C216.475 29.0838 217.162 28.9489 217.929 28.9489C219.009 28.9489 219.856 29.1856 220.472 29.6591C221.092 30.1326 221.532 30.7576 221.793 31.5341ZM227.725 40.2557C227.033 40.2557 226.406 40.1255 225.843 39.8651C225.279 39.5999 224.832 39.2188 224.5 38.7216C224.169 38.2197 224.003 37.6136 224.003 36.9034C224.003 36.2784 224.126 35.7718 224.373 35.3835C224.619 34.9905 224.948 34.6828 225.36 34.4602C225.772 34.2377 226.226 34.072 226.723 33.9631C227.225 33.8494 227.73 33.7595 228.236 33.6932C228.899 33.608 229.436 33.544 229.848 33.5014C230.265 33.4541 230.568 33.3759 230.757 33.267C230.952 33.1581 231.049 32.9687 231.049 32.6989V32.642C231.049 31.9413 230.857 31.3968 230.473 31.0085C230.095 30.6203 229.519 30.4261 228.748 30.4261C227.947 30.4261 227.32 30.6013 226.865 30.9517C226.411 31.3021 226.091 31.6761 225.907 32.0739L224.316 31.5057C224.6 30.8428 224.979 30.3267 225.452 29.9574C225.93 29.5833 226.451 29.3229 227.015 29.1761C227.583 29.0246 228.141 28.9489 228.691 28.9489C229.041 28.9489 229.444 28.9915 229.898 29.0767C230.357 29.1572 230.8 29.3253 231.226 29.581C231.657 29.8366 232.015 30.2225 232.299 30.7386C232.583 31.2547 232.725 31.946 232.725 32.8125V40H231.049V38.5227H230.963C230.85 38.7595 230.66 39.0128 230.395 39.2827C230.13 39.5526 229.777 39.7822 229.337 39.9716C228.897 40.161 228.359 40.2557 227.725 40.2557ZM227.98 38.75C228.643 38.75 229.202 38.6198 229.657 38.3594C230.116 38.099 230.462 37.7628 230.694 37.3509C230.93 36.9389 231.049 36.5057 231.049 36.0511V34.517C230.978 34.6023 230.821 34.6804 230.58 34.7514C230.343 34.8177 230.069 34.8769 229.756 34.929C229.448 34.9763 229.148 35.0189 228.854 35.0568C228.565 35.09 228.331 35.1184 228.151 35.142C227.715 35.1989 227.308 35.2912 226.929 35.419C226.555 35.5421 226.252 35.7292 226.02 35.9801C225.793 36.2263 225.679 36.5625 225.679 36.9886C225.679 37.571 225.895 38.0114 226.326 38.3097C226.761 38.6032 227.313 38.75 227.98 38.75ZM237.46 25.4545V40H235.784V25.4545H237.46Z" fill="#4091AD"/>
</svg>
